# xmcd CD database file
# Copyright (C) 1997 Ti Kan
# 
# Track frame offsets:
#     182
#     10552
#     21050
#     32560
#     44797
#     54822
#     67990
#     80542
#     96242
#     107342
#     119270
#     133570
#     145322
#     156485
#     166187
#     181735
#     199567
#     222917
#     241960
#     256655
# 
# Disc length: 3643 seconds
# 
# Revision: 1
# Processed by: cddbd v1.4b41PL1 Copyright (c) Steve Scherf et al.
# Submitted via: DiscPlay 4.0.3
# 
DISCID=fe0e3914
DTITLE=Sonny Boy Williamson - The Very Best of Sonny Boy Williamson, Disc 2
DYEAR=1900
DGENRE=
TTITLE0=Temperature 110
TTITLE1=Somebody Help Me
TTITLE2=Down Child
TTITLE3=Trust My Baby
TTITLE4=Too Close Together
TTITLE5=Too Young To Die
TTITLE6=The Hunt
TTITLE7=Nine Below Zero
TTITLE8=Got To Move
TTITLE9=Bye Bye Bird
TTITLE10=Help Me
TTITLE11=Bring It On Home
TTITLE12=One Way Out
TTITLE13=Trying To Get Back On My Feet
TTITLE14=Decoration Day
TTITLE15=Mister Downchild
TTITLE16=23 Hours Too Long
TTITLE17=Take It Easy, Baby
TTITLE18=Highway 69
TTITLE19=My Little Cabin
EXTD=
EXTT0=
EXTT1=
EXTT2=
EXTT3=
EXTT4=
EXTT5=
EXTT6=
EXTT7=
EXTT8=
EXTT9=
EXTT10=
EXTT11=
EXTT12=
EXTT13=
EXTT14=
EXTT15=
EXTT16=
EXTT17=
EXTT18=
EXTT19=
PLAYORDER=
